<svg xmlns="http://www.w3.org/2000/svg" width="65" height="64" fill="none"><path fill="url(#a)" d="M41.019 20.389a1.872 1.872 0 0 0 2.65 0l2.608-2.608a1.878 1.878 0 0 0 0-2.651l-6.583-6.581a1.871 1.871 0 0 0-2.648 0l-2.61 2.608a1.875 1.875 0 0 0 0 2.648l6.583 6.584Z"/><path fill="url(#b)" d="M25.433 36.265a1.876 1.876 0 0 0 2.648 0l2.609-2.61a1.872 1.872 0 0 0 0-2.649l-6.583-6.583a1.874 1.874 0 0 0-2.65 0l-2.607 2.608a1.875 1.875 0 0 0 0 2.65l6.583 6.584Z"/><path fill="url(#c)" d="m55.315 36.891-2.647-2.65a1.875 1.875 0 0 0-2.648 0l-1.161 1.16-11.205-11.207 2.427-2.428-6.733-6.73-2.428 2.427-3.092 3.09-2.374 2.374 6.732 6.733 2.377-2.373 11.203 11.205-1.048 1.05a1.87 1.87 0 0 0 0 2.647l2.647 2.648a1.87 1.87 0 0 0 2.65 0l5.299-5.297a1.871 1.871 0 0 0 0-2.649Z"/><path fill="url(#d)" d="M35.744 44.943a2.173 2.173 0 0 0-2.173-2.173H16.603c-1.2 0-2.173.973-2.173 2.172v3.527H9.667v7.39h30.558v-7.39h-4.481v-3.526Z"/><defs><linearGradient id="a" x1="40.357" x2="40.357" y1="8" y2="20.939" gradientUnits="userSpaceOnUse"><stop stop-color="#EF8080"/><stop offset="1" stop-color="#F0145A"/></linearGradient><linearGradient id="b" x1="24.77" x2="24.77" y1="23.875" y2="36.812" gradientUnits="userSpaceOnUse"><stop stop-color="#EF8080"/><stop offset="1" stop-color="#F0145A"/></linearGradient><linearGradient id="c" x1="40.659" x2="40.659" y1="15.035" y2="45.388" gradientUnits="userSpaceOnUse"><stop stop-color="#EF8080"/><stop offset="1" stop-color="#F0145A"/></linearGradient><linearGradient id="d" x1="24.946" x2="24.946" y1="42.77" y2="55.858" gradientUnits="userSpaceOnUse"><stop stop-color="#EF8080"/><stop offset="1" stop-color="#F0145A"/></linearGradient></defs></svg>