<svg xmlns="http://www.w3.org/2000/svg" width="65" height="64" fill="none"><path fill="url(#a)" fill-rule="evenodd" d="M53.785 35.078v17.295c0 3.094-2.425 5.629-5.388 5.629H16.304c-2.964 0-5.388-2.535-5.388-5.629V35.078h16.666v7.51l4.768 3.134 4.769-3.133v-7.51h16.666Z" clip-rule="evenodd"/><path fill="url(#b)" fill-rule="evenodd" d="M29.252 35.078v6.609l3.098 2.035 3.098-2.035v-6.609h-6.196Z" clip-rule="evenodd"/><path fill="url(#c)" fill-rule="evenodd" d="M12.407 15.145h39.886c1.883 0 3.421 1.708 3.421 3.795v10.253c0 2.087-1.538 3.796-3.42 3.796H12.406c-1.883 0-3.42-1.708-3.42-3.796V18.94c0-2.087 1.537-3.796 3.42-3.796Z" clip-rule="evenodd"/><path fill="url(#d)" fill-rule="evenodd" d="M24.046 5.953h16.609a2.814 2.814 0 0 1 2.806 2.806v4.377h-3.557V10.55c0-.698-.57-1.27-1.268-1.27H26.064c-.697 0-1.267.572-1.267 1.27v2.586h-3.558V8.76a2.814 2.814 0 0 1 2.806-2.806Z" clip-rule="evenodd"/><defs><linearGradient id="a" x1="32.35" x2="32.35" y1="35.078" y2="58.002" gradientUnits="userSpaceOnUse"><stop stop-color="#EF8080"/><stop offset="1" stop-color="#F0145A"/></linearGradient><linearGradient id="b" x1="32.35" x2="32.35" y1="35.078" y2="43.722" gradientUnits="userSpaceOnUse"><stop stop-color="#EF8080"/><stop offset="1" stop-color="#F0145A"/></linearGradient><linearGradient id="c" x1="32.35" x2="32.35" y1="15.145" y2="32.989" gradientUnits="userSpaceOnUse"><stop stop-color="#EF8080"/><stop offset="1" stop-color="#F0145A"/></linearGradient><linearGradient id="d" x1="32.35" x2="32.35" y1="5.953" y2="13.136" gradientUnits="userSpaceOnUse"><stop stop-color="#EF8080"/><stop offset="1" stop-color="#F0145A"/></linearGradient></defs></svg>